# xmcd
#
# Track frame offsets: 
#        150
#        16684
#        26596
#        39365
#        48881
#        63154
#        83863
#        93552
#        106438
#        121297
#        134575
#        152387
#        168890
#
# Disc length: 2454 seconds
#
# Revision: 0
# Processed by: cddbd v1.5.1PL2 Copyright (c) Steve Scherf et al.
# Submitted via: ExactAudioCopy v0.95b3
#
DISCID=9509940d
DTITLE=Stefan Sidholm - Tequila Sunrise
DYEAR=2005
DGENRE=Country
TTITLE0=Follow Me
TTITLE1=Mama Tried
TTITLE2=Tequila Sunrise
TTITLE3=Photographs and Memories
TTITLE4=No Doubt About It
TTITLE5=Travelin Soldier
TTITLE6=Burning The Roadhouse Down
TTITLE7=Amarillo by Morning
TTITLE8=Lodi
TTITLE9=Okie from Muskogee
TTITLE10=One Night a Day
TTITLE11=The River
TTITLE12=Unanswered Prayers
EXTD=
EXTT0=
EXTT1=
EXTT2=
EXTT3=
EXTT4=
EXTT5=
EXTT6=
EXTT7=
EXTT8=
EXTT9=
EXTT10=
EXTT11=
EXTT12=
PLAYORDER=
